<?xml version="1.0" encoding="UTF-8"?>
<svg width="144px" height="144px" viewBox="0 0 144 144" version="1.1" xmlns="http://www.w3.org/2000/svg" xmlns:xlink="http://www.w3.org/1999/xlink">
    <title>Deposit &amp; Earn</title>
    <defs>
        <rect id="path-1" x="0" y="0" width="30.4761905" height="68.5714286"></rect>
        <linearGradient x1="50%" y1="100%" x2="50%" y2="3.061617e-15%" id="linearGradient-3">
            <stop stop-color="#FE863F" offset="0%"></stop>
            <stop stop-color="#FE423F" offset="100%"></stop>
        </linearGradient>
        <rect id="path-4" x="0.0995898276" y="0" width="32.097561" height="67.2520325"></rect>
        <linearGradient x1="50%" y1="100%" x2="50%" y2="3.061617e-15%" id="linearGradient-6">
            <stop stop-color="#FE523F" offset="0%"></stop>
            <stop stop-color="#FE383F" offset="100%"></stop>
        </linearGradient>
    </defs>
    <g id="首页" stroke="none" stroke-width="1" fill="none" fill-rule="evenodd">
        <g id="图标" transform="translate(-1367.000000, -194.000000)">
            <g id="Deposit-&amp;-Earn" transform="translate(1367.000000, 194.000000)">
                <g id="Path" transform="translate(40.000000, 38.000000)">
                    <mask id="mask-2" fill="white">
                        <use xlink:href="#path-1"></use>
                    </mask>
                    <g id="Mask"></g>
                    <path d="M53.1712001,23.0128317 C51.4898973,21.2264475 49.7035131,19.6502261 47.8120475,18.389249 C47.4968032,18.1790862 47.2866404,17.9689233 46.9713961,17.7587605 C49.5984317,16.4977834 51.3848159,14.0809107 51.3848159,11.3487937 C51.3848159,7.04045535 47.181559,3.67784981 42.1376507,3.67784981 C40.981755,3.67784981 39.9309408,3.88801265 38.985208,4.20325692 C38.5648823,4.41341977 38.1445566,4.51850119 37.9343937,4.72866404 C37.8293123,4.83374546 37.4089866,4.72866404 37.3039052,4.51850119 C36.8835795,3.99309408 36.3581724,3.25752412 35.517521,2.62703558 C34.1514625,1.3660585 32.4701597,0.630488539 30.5786941,0.525407115 C28.6872285,0.735569962 27.0059257,1.47113992 25.6398672,2.62703558 C24.7992158,3.36260554 24.2738087,3.99309408 23.853483,4.51850119 C23.7484016,4.72866404 23.3280759,4.83374546 23.2229945,4.72866404 C22.9077502,4.51850119 22.592506,4.41341977 22.1721803,4.20325692 C21.2264475,3.78293123 20.1756332,3.67784981 19.0197376,3.67784981 C13.9758293,3.67784981 9.77257235,7.04045535 9.77257235,11.3487937 C9.77257235,14.0809107 11.5589565,16.4977834 14.1859921,17.7587605 C13.8707478,17.9689233 13.660585,18.1790862 13.3453407,18.389249 C11.4538751,19.6502261 9.66749092,21.3315289 7.98618815,23.0128317 C3.04736127,28.05674 -1.08273179e-13,33.9412997 -1.08273179e-13,40.3512665 C-1.08273179e-13,58.3201898 13.7656664,66.8317851 30.3685313,66.8317851 L30.9990198,66.8317851 C47.6018847,66.8317851 61.3675511,58.3201898 61.3675511,40.3512665 C61.1573882,33.8362182 58.110027,28.05674 53.1712001,23.0128317 Z" fill="url(#linearGradient-3)" fill-rule="nonzero" mask="url(#mask-2)"></path>
                    <path d="M30.8371386,30.9431503 C34.2410961,30.9431503 36.8466571,33.3358563 36.8466571,33.3358563 L38.9893706,29.2853989 C38.9893706,29.2853989 36.6945298,26.855346 32.251561,26.4730407 L32.251561,24.5721651 C32.251561,23.6634712 31.514919,22.9268293 30.6062251,22.9268293 C29.6975312,22.9268293 28.9608893,23.6634712 28.9608893,24.5721651 L28.9608893,26.5510387 L28.9608893,26.5510387 C24.7099893,27.2431457 21.7613322,30.326851 21.7613322,34.2981966 C21.7613322,42.5847759 34.7028497,42.1244415 34.7028497,46.7505596 C34.7028497,48.9861682 32.8266309,50.0638722 30.7583616,50.0638722 C26.9303921,50.0638722 23.9828471,47.1724146 23.9828471,47.1724146 L21.3028419,50.9130765 C21.3028419,50.9130765 24.0216886,53.9561371 28.9620076,54.5361908 L28.9620076,56.4359649 C28.9620076,57.3446589 29.6986495,58.0813008 30.6073434,58.0813008 C31.5160374,58.0813008 32.2526793,57.3446589 32.2526793,56.4359649 L32.2526793,54.5361908 L32.2526793,54.5361908 C36.9243524,53.9176912 39.6443053,50.5659279 39.6443053,46.6340946 C39.6443053,37.9981889 26.7394538,38.8067297 26.7394538,34.2201862 C26.7394476,32.2911063 28.5369078,30.9431503 30.8371386,30.9431503 Z" id="path" fill="#FFFFFF" fill-rule="nonzero" mask="url(#mask-2)"></path>
                </g>
                <g id="Path" transform="translate(70.373984, 38.000000)">
                    <mask id="mask-5" fill="white">
                        <use xlink:href="#path-4"></use>
                    </mask>
                    <g id="Mask"></g>
                    <path d="M22.7972163,23.0128317 C21.1159136,21.2264475 19.3295294,19.6502261 17.4380638,18.389249 C17.1228195,18.1790862 16.9126567,17.9689233 16.5974124,17.7587605 C19.224448,16.4977834 21.0108322,14.0809107 21.0108322,11.3487937 C21.0108322,7.04045535 16.8075752,3.67784981 11.7636669,3.67784981 C10.6077713,3.67784981 9.55695703,3.88801265 8.61122423,4.20325692 C8.19089853,4.41341977 7.77057284,4.51850119 7.56041,4.72866404 C7.45532857,4.83374546 7.03500288,4.72866404 6.92992146,4.51850119 C6.50959576,3.99309408 5.98418865,3.25752412 5.14353726,2.62703558 C3.77747876,1.3660585 2.09617599,0.630488539 0.204710379,0.525407115 C-1.68675524,0.735569962 -3.36805801,1.47113992 -4.73411651,2.62703558 C-5.57476789,3.36260554 -6.10017501,3.99309408 -6.5205007,4.51850119 C-6.62558212,4.72866404 -7.04590781,4.83374546 -7.15098924,4.72866404 C-7.46623351,4.51850119 -7.78147778,4.41341977 -8.20180347,4.20325692 C-9.14753628,3.78293123 -10.1983505,3.67784981 -11.3542462,3.67784981 C-16.3981545,3.67784981 -20.6014114,7.04045535 -20.6014114,11.3487937 C-20.6014114,14.0809107 -18.8150272,16.4977834 -16.1879916,17.7587605 C-16.5032359,17.9689233 -16.7133987,18.1790862 -17.028643,18.389249 C-18.9201086,19.6502261 -20.7064928,21.3315289 -22.3877956,23.0128317 C-27.3266225,28.05674 -30.3739837,33.9412997 -30.3739837,40.3512665 C-30.3739837,58.3201898 -16.6083173,66.8317851 -0.00545246699,66.8317851 L0.625036072,66.8317851 C17.2279009,66.8317851 30.9935673,58.3201898 30.9935673,40.3512665 C30.7834045,33.8362182 27.7360432,28.05674 22.7972163,23.0128317 Z" fill="url(#linearGradient-6)" fill-rule="nonzero" mask="url(#mask-5)"></path>
                    <path d="M0.463154842,30.9431503 C3.86711238,30.9431503 6.47267336,33.3358563 6.47267336,33.3358563 L8.61538691,29.2853989 C8.61538691,29.2853989 6.32054603,26.855346 1.87757726,26.4730407 L1.87757726,24.5721651 C1.87757726,23.6634712 1.1409353,22.9268293 0.232241391,22.9268293 C-0.676452521,22.9268293 -1.41309448,23.6634712 -1.41309448,24.5721651 L-1.41309448,26.5510387 L-1.41309448,26.5510387 C-5.6639944,27.2431457 -8.61265159,30.326851 -8.61265159,34.2981966 C-8.61265159,42.5847759 4.32886595,42.1244415 4.32886595,46.7505596 C4.32886595,48.9861682 2.45264718,50.0638722 0.38437789,50.0638722 C-3.44359166,50.0638722 -6.39113665,47.1724146 -6.39113665,47.1724146 L-9.07114188,50.9130765 C-9.07114188,50.9130765 -6.35229511,53.9561371 -1.41197617,54.5361908 L-1.41197617,56.4359649 C-1.41197617,57.3446589 -0.675334207,58.0813008 0.233359704,58.0813008 C1.14205362,58.0813008 1.87869558,57.3446589 1.87869558,56.4359649 L1.87869558,54.5361908 L1.87869558,54.5361908 C6.55036867,53.9176912 9.27032153,50.5659279 9.27032153,46.6340946 C9.27032153,37.9981889 -3.63452998,38.8067297 -3.63452998,34.2201862 C-3.63453609,32.2911063 -1.83707594,30.9431503 0.463154842,30.9431503 Z" id="path" fill="#FFFFFF" fill-rule="nonzero" opacity="0.702897892" mask="url(#mask-5)"></path>
                </g>
            </g>
        </g>
    </g>
</svg>