<?xml version="1.0" encoding="UTF-8"?>
<svg width="144px" height="144px" viewBox="0 0 144 144" version="1.1" xmlns="http://www.w3.org/2000/svg" xmlns:xlink="http://www.w3.org/1999/xlink">
    <title>loan</title>
    <defs>
        <linearGradient x1="50%" y1="0%" x2="50%" y2="100%" id="linearGradient-1">
            <stop stop-color="#FE423F" offset="0%"></stop>
            <stop stop-color="#FE863F" offset="100%"></stop>
        </linearGradient>
    </defs>
    <g id="首页" stroke="none" stroke-width="1" fill="none" fill-rule="evenodd">
        <g id="图标" transform="translate(-1009.000000, -194.000000)" fill="url(#linearGradient-1)">
            <g id="loan" transform="translate(1046.000000, 236.000000)">
                <path d="M37.813187,26.2892265 L67.4776653,39.8791303 C69.150122,40.6453169 69.799515,42.4585423 68.9281252,43.9290827 C68.6047184,44.4748575 68.0983792,44.9200663 67.4776653,45.204428 L37.813187,58.7943318 C35.8356272,59.7002923 33.4795834,59.7002923 31.5020236,58.7943318 L1.83754532,45.204428 C0.165088625,44.4382414 -0.484304381,42.625016 0.38708544,41.1544756 C0.710492176,40.6087007 1.21683143,40.163492 1.83754532,39.8791303 L31.5020236,26.2892265 C33.4795834,25.383266 35.8356272,25.383266 37.813187,26.2892265 Z" id="Rectangle-Copy-2" opacity="0.4"></path>
                <path d="M37.813187,14.338007 L67.4776653,27.9279108 C69.150122,28.6940974 69.799515,30.5073228 68.9281252,31.9778632 C68.6047184,32.523638 68.0983792,32.9688468 67.4776653,33.2532085 L37.813187,46.8431123 C35.8356272,47.7490728 33.4795834,47.7490728 31.5020236,46.8431123 L1.83754532,33.2532085 C0.165088625,32.4870219 -0.484304381,30.6737964 0.38708544,29.2032561 C0.710492176,28.6574812 1.21683143,28.2122725 1.83754532,27.9279108 L31.5020236,14.338007 C33.4795834,13.4320464 35.8356272,13.4320464 37.813187,14.338007 Z" id="Rectangle-Copy" opacity="0.7"></path>
                <path d="M37.813187,0.679470416 L67.4776653,14.2693742 C69.150122,15.0355608 69.799515,16.8487862 68.9281252,18.3193266 C68.6047184,18.8651014 68.0983792,19.3103102 67.4776653,19.5946719 L37.813187,33.1845757 C35.8356272,34.0905362 33.4795834,34.0905362 31.5020236,33.1845757 L1.83754532,19.5946719 C0.165088625,18.8284853 -0.484304381,17.0152599 0.38708544,15.5447195 C0.710492176,14.9989446 1.21683143,14.5537359 1.83754532,14.2693742 L31.5020236,0.679470416 C33.4795834,-0.226490139 35.8356272,-0.226490139 37.813187,0.679470416 Z" id="Rectangle"></path>
            </g>
        </g>
    </g>
</svg>