<?xml version="1.0" encoding="utf-8"?>
<!-- Generator: Adobe Illustrator 23.0.0, SVG Export Plug-In . SVG Version: 6.00 Build 0)  -->
<svg version="1.1" id="图层_1" xmlns="http://www.w3.org/2000/svg" xmlns:xlink="http://www.w3.org/1999/xlink" x="0px" y="0px"
	 viewBox="0 0 302 302" style="enable-background:new 0 0 302 302;" xml:space="preserve">
<path class="st0" d="M151,0.5C67.9,0.5,0.5,67.9,0.5,151S67.9,301.5,151,301.5S301.5,234.1,301.5,151S234.1,0.5,151,0.5z
	 M127.7,139.5c0,0,0-1.1,2.2-4.7c2.6-4.4,7.5-5.6,7.5-5.6C135.3,138.2,127.7,139.5,127.7,139.5z M234,223h-34.6l-31.2-43.2
	c0,0,5.6,18.2,6.5,26.8c1.2,10.8-0.2,19.5-3.6,28.2c5.7-38.3-26.8-64.1-26.2-79.2c0.7-18.6,14.1-31.7,23.9-39.6c0,0-6.2-6-15.8-1.9
	c-9.6,4.1-13.2,9-13.2,9s-6.3-0.4-13,4.2c-6.6,4.6-17.1,22.5-24.9,33.2c-7.4,10.1-11.3,6.9-11.7,6.5c0.3,0.9,3.7,11.3,17.4,1.6
	c0,0,4.2,5.6-3.5,13c0,0,10.9-0.6,11.4-11c0,0,2.4,3.9,3,19.1c0.3,6.6-1.1,16.4-3.8,21.3c0,0,0,0.1-0.1,0.1
	c-4.1,7.3-12,11.8-20.4,11.8H79V68h27.7l0,54.2l15.3,0c7.2,0,14.1-2.7,19.4-7.5L192.8,68H234l-67.5,62.2L234,223z"/>
</svg>
