<?xml version="1.0" encoding="UTF-8"?>
<svg width="24px" height="24px" viewBox="0 0 24 24" version="1.1" xmlns="http://www.w3.org/2000/svg" xmlns:xlink="http://www.w3.org/1999/xlink">
    <title>编组备份 3</title>
    <defs>
        <filter id="filter-1">
            <feColorMatrix in="SourceGraphic" type="matrix" values="0 0 0 0 0.999902 0 0 0 0 1.000000 0 0 0 0 0.999880 0 0 0 1.000000 0"></feColorMatrix>
        </filter>
    </defs>
    <g id="页面-1" stroke="none" stroke-width="1" fill="none" fill-rule="evenodd">
        <g id="编组备份-3" transform="translate(-314.000000, -411.000000)" filter="url(#filter-1)">
            <g transform="translate(314.000000, 411.000000)">
                <path d="M12.0004219,23.4138376 C5.70908196,23.4138376 0.59069653,18.293458 0.59069653,11.9995813 C0.59069653,5.70620704 5.70908196,0.586162381 12.0004219,0.586162381 C18.29134,0.586162381 23.4093035,5.70620704 23.4093035,11.9995813 C23.4093035,18.293458 18.29134,23.4138376 12.0004219,23.4138376 M12.0004219,0 C5.38335502,0 0,5.38298036 0,11.9995813 C0,18.616601 5.38335502,24 12.0004219,24 C18.6170669,24 24,18.616601 24,11.9995813 C24,5.38298036 18.6170669,0 12.0004219,0" id="Fill-1" fill="#1E1E1E"></path>
                <path d="M21.4892153,14.3069603 C21.3467795,13.8920985 21.1347309,13.429649 20.8180098,12.9966585 C20.0433989,11.9377246 18.9194571,11.3967173 17.4772734,11.3885762 C17.4670512,11.3885762 17.4568289,11.3884923 17.4466066,11.3884923 C13.5673007,11.3884923 13.0979215,15.3378619 13.0745202,15.5648902 C12.9250724,16.6699012 12.2907008,17.1414991 11.9259097,17.3242967 C11.3675715,17.6031933 10.8530792,17.7176726 10.2025717,17.7076851 C8.28509511,17.6755402 7.09035777,16.6152634 6.42582631,15.7314895 C5.84662116,14.961104 4.93557269,14.4984865 3.98912647,14.4939544 L2.55479961,14.4854775 C2.54854797,14.4618095 2.54153601,14.4382254 2.53545334,14.4145574 C2.33624597,13.6294842 2.2352061,12.8169662 2.2352061,11.9995804 C2.2352061,9.22412764 3.41938325,6.56970075 5.48453346,4.7163775 C5.50075391,4.70177383 5.51697436,4.68800945 5.53327928,4.67357364 L7.25957421,9.89010537 C7.23617283,9.90940907 7.21463005,9.93114671 7.19790271,9.95724868 C7.15059307,10.031442 7.13918807,10.1227569 7.16681352,10.2061825 L7.7093537,11.8465775 L6.22966027,12.0277805 C6.14560118,12.0381038 6.07007472,12.0836774 6.02208923,12.1529189 C5.97418822,12.2223283 5.95847466,12.3086914 5.97891918,12.3902705 C5.99142245,12.4402083 6.29319036,13.6273021 6.96777511,14.7886296 C7.81537798,16.2478216 8.87891555,17.0084714 10.0613186,17.0083875 C10.1757065,17.0083875 10.2914462,17.0012535 10.4079462,16.9869855 C10.4178305,16.9857266 10.4269545,16.9826212 10.4364164,16.980523 C10.4375147,16.980523 10.4385285,16.9807748 10.4397112,16.9807748 C10.4517921,16.9807748 10.4640419,16.9801033 10.4762917,16.9785926 C11.178333,16.8923974 11.694177,16.5771595 12.0096309,16.0417756 C12.9113864,14.5111598 11.7664931,11.6918961 11.7173249,11.5726328 C11.6667205,11.4500123 11.5397448,11.3766583 11.4074468,11.392437 L9.74282335,11.5969723 L9.16395613,9.84579078 C9.12560153,9.72963285 9.01991517,9.65132696 8.90045833,9.64436085 L6.91742414,3.64988993 C8.44468065,2.71466753 10.196489,2.22015704 11.9995776,2.22015704 C17.3841748,2.22015704 21.7647939,6.60713315 21.7647939,11.9995804 C21.7647939,12.7836464 21.6710194,13.5558784 21.4892153,14.3069603 L21.4892153,14.3069603 Z M9.51962323,12.8046287 C9.57056557,12.9588065 9.73783894,13.0428196 9.89277801,12.9920424 C10.047886,12.9414332 10.1323675,12.7754213 10.0814252,12.6213274 L9.93087916,12.165844 L11.2492974,12.0039447 C11.3454374,12.2694125 11.5091625,12.7614891 11.6258314,13.32415 C11.8473419,14.3918126 11.803496,15.2290897 11.4989402,15.7455057 C11.2784435,16.1194939 10.920242,16.3320865 10.4038066,16.395453 C10.3919792,16.3968798 10.3810811,16.4004048 10.3697605,16.4031744 C10.3583555,16.4032584 10.347035,16.402503 10.3353766,16.4038459 C8.130325,16.6746013 6.96811304,13.5885268 6.64657646,12.5687038 L7.89757848,12.4154492 L8.08436707,12.9801245 C8.12525611,13.1037521 8.24091128,13.1822259 8.36518357,13.1822259 C8.39576587,13.1822259 8.42693954,13.1774419 8.45760632,13.1673704 C8.61271435,13.1167611 8.69711137,12.9507493 8.64608455,12.7965715 L7.84080691,10.3620389 L8.67810303,10.2590579 L9.51962323,12.8046287 Z M11.9995776,1.63265306 C10.0059832,1.63265306 8.07076555,2.20102119 6.40352319,3.27598561 C6.23988253,3.38106489 6.07717117,3.49269065 5.90651854,3.6169897 C5.767462,3.7177886 5.62713823,3.82546969 5.48934891,3.93709544 C5.48698342,3.93902581 5.48453346,3.94112404 5.48216798,3.94305441 C5.48191453,3.9433062 5.48174557,3.94347406 5.48149213,3.94355798 C5.35105269,4.04947656 5.21850122,4.16286483 5.08763938,4.2808692 C2.89906171,6.24489499 1.64383562,9.05828367 1.64383562,11.9995804 C1.64383562,12.8653094 1.75087367,13.7261706 1.9621619,14.5587477 C1.99105457,14.6718002 2.02096102,14.7811599 2.05061403,14.882882 C2.6607394,16.9978963 3.96462684,18.9023324 5.72192647,20.2455344 C7.5381097,21.6336384 9.70894627,22.3673469 11.9995776,22.3673469 C16.3843363,22.3673469 20.3098535,19.5876138 21.7674973,15.4506626 C22.1581398,14.3458194 22.3561644,13.1846598 22.3561644,11.9995804 C22.3561644,6.28316667 17.7102734,1.63265306 11.9995776,1.63265306 L11.9995776,1.63265306 Z" id="Fill-3" fill="#1E1E1E"></path>
            </g>
        </g>
    </g>
</svg>