<?xml version="1.0" encoding="UTF-8"?>
<svg width="144px" height="144px" viewBox="0 0 144 144" version="1.1" xmlns="http://www.w3.org/2000/svg" xmlns:xlink="http://www.w3.org/1999/xlink">
    <title>swap</title>
    <defs>
        <linearGradient x1="100%" y1="50%" x2="0%" y2="50%" id="linearGradient-1">
            <stop stop-color="#FE863F" offset="0%"></stop>
            <stop stop-color="#FE423F" offset="100%"></stop>
        </linearGradient>
        <linearGradient x1="50%" y1="100%" x2="50%" y2="3.061617e-15%" id="linearGradient-2">
            <stop stop-color="#FFA6A5" offset="0%"></stop>
            <stop stop-color="#FFFFFF" offset="100%"></stop>
        </linearGradient>
        <linearGradient x1="50%" y1="0%" x2="50%" y2="100%" id="linearGradient-3">
            <stop stop-color="#FE423F" offset="0%"></stop>
            <stop stop-color="#FE863F" offset="100%"></stop>
        </linearGradient>
        <path d="M58.2055507,38.4028723 C61.907301,38.4028723 64.9081626,41.4037338 64.9081626,45.1054842 L64.9081626,61.8620139 C64.9081626,65.5637643 61.907301,68.5646259 58.2055507,68.5646259 C54.5038003,68.5646259 51.5029388,65.5637643 51.5029388,61.8620139 L51.5029388,45.1054842 C51.5029388,41.4037338 54.5038003,38.4028723 58.2055507,38.4028723 Z" id="path-4"></path>
        <linearGradient x1="99.0220717%" y1="50%" x2="0%" y2="50%" id="linearGradient-5">
            <stop stop-color="#FE863F" offset="0%"></stop>
            <stop stop-color="#FE423F" offset="100%"></stop>
        </linearGradient>
        <path d="M85.9357108,75.5789872 C89.6374611,75.5789872 92.6383227,78.5798487 92.6383227,82.2815991 L92.6383227,99.0381288 C92.6383227,102.739879 89.6374611,105.740741 85.9357108,105.740741 C82.2339604,105.740741 79.2330989,102.739879 79.2330989,99.0381288 L79.2330989,82.2815991 C79.2330989,78.5798487 82.2339604,75.5789872 85.9357108,75.5789872 Z" id="path-6"></path>
    </defs>
    <g id="首页" stroke="none" stroke-width="1" fill="none" fill-rule="evenodd">
        <g id="图标" transform="translate(-1188.000000, -194.000000)">
            <g id="swap" transform="translate(1188.000000, 194.000000)">
                <path d="M52.8201058,53.1992604 L93.0357773,53.1992604 C96.7375276,53.1992604 99.7383892,56.200122 99.7383892,59.9018723 C99.7383892,63.6036227 96.7375276,66.6044842 93.0357773,66.6044842 L52.8201058,66.6044842 C49.1183555,66.6044842 46.1174939,63.6036227 46.1174939,59.9018723 C46.1174939,56.200122 49.1183555,53.1992604 52.8201058,53.1992604 Z" id="Rectangle" fill="url(#linearGradient-1)"></path>
                <g id="Rectangle" transform="translate(58.205551, 53.483749) rotate(40.000000) translate(-58.205551, -53.483749) ">
                    <use fill="url(#linearGradient-2)" xlink:href="#path-4"></use>
                    <use fill="url(#linearGradient-3)" xlink:href="#path-4"></use>
                </g>
                <path d="M51.1054842,77.5391288 L91.3211556,77.5391288 C95.022906,77.5391288 98.0237675,80.5399903 98.0237675,84.2417407 C98.0237675,87.943491 95.022906,90.9443526 91.3211556,90.9443526 L51.1054842,90.9443526 C47.4037338,90.9443526 44.4028723,87.943491 44.4028723,84.2417407 C44.4028723,80.5399903 47.4037338,77.5391288 51.1054842,77.5391288 Z" id="Rectangle-Copy-3" fill="url(#linearGradient-5)" transform="translate(71.213320, 84.241741) scale(-1, -1) translate(-71.213320, -84.241741) "></path>
                <g id="Rectangle-Copy-4" transform="translate(85.935711, 90.659864) scale(-1, -1) rotate(40.000000) translate(-85.935711, -90.659864) ">
                    <use fill="url(#linearGradient-2)" xlink:href="#path-6"></use>
                    <use fill="url(#linearGradient-3)" xlink:href="#path-6"></use>
                </g>
            </g>
        </g>
    </g>
</svg>